<!-- Generated by IcoMoon.io -->
<svg version="1.1" xmlns="http://www.w3.org/2000/svg" width="768" height="768" viewBox="0 0 768 768">
<title></title>
<g id="icomoon-ignore">
</g>
<path fill="#000" d="M352 416v256h-192v-256zM416 672v-256h192v256zM240 192c-13.248 0-25.216-5.344-33.952-14.048s-14.048-20.704-14.048-33.952 5.344-25.216 14.048-33.952 20.704-14.048 33.952-14.048c20.128 0 36.544 7.136 50.688 18.752 12.032 9.856 22.432 23.008 31.232 37.664 7.712 12.832 13.856 26.272 18.56 38.496zM427.072 192c5.152-13.312 11.296-26.752 18.976-39.584 8.8-14.688 19.232-27.808 31.232-37.664 14.176-11.616 30.592-18.752 50.72-18.752 13.248 0 25.216 5.344 33.952 14.048s14.048 20.704 14.048 33.952-5.344 25.216-14.048 33.952-20.704 14.048-33.952 14.048zM352 256v96h-256v-96h144zM629.216 192c6.912-14.56 10.784-30.816 10.784-48 0-30.912-12.576-58.976-32.8-79.2s-48.288-32.8-79.2-32.8c-37.12 0-67.488 13.76-91.264 33.248-19.296 15.808-34.176 35.296-45.536 54.208-2.56 4.256-4.96 8.512-7.2 12.736-2.24-4.224-4.64-8.48-7.2-12.736-11.36-18.912-26.24-38.4-45.536-54.208-23.776-19.488-54.144-33.248-91.264-33.248-30.912 0-58.976 12.576-79.2 32.8s-32.8 48.288-32.8 79.2c0 17.184 3.872 33.44 10.784 48h-74.784c-17.664 0-32 14.336-32 32v160c0 17.664 14.336 32 32 32h32v288c0 17.664 14.336 32 32 32h512c17.664 0 32-14.336 32-32v-288h32c17.664 0 32-14.336 32-32v-160c0-17.664-14.336-32-32-32zM416 256h256v96h-256z"></path>
</svg>
